<?xml version="1.0" encoding="utf-8"?>
<!-- Generator: Adobe Illustrator 19.0.0, SVG Export Plug-In . SVG Version: 6.00 Build 0)  -->
<svg version="1.1" id="Layer_1" xmlns="http://www.w3.org/2000/svg" xmlns:xlink="http://www.w3.org/1999/xlink" x="0px" y="0px"
	 viewBox="0 0 64 64" enable-background="new 0 0 64 64" xml:space="preserve">
<g id="doctor">
	<g id="XMLID_4_">
		
			<linearGradient id="XMLID_2_" gradientUnits="userSpaceOnUse" x1="1" y1="32" x2="63" y2="32" gradientTransform="matrix(1 0 0 -1 0 64)">
			<stop  offset="0" style="stop-color:#662E19"/>
			<stop  offset="0.1016" style="stop-color:#69311B"/>
			<stop  offset="0.2094" style="stop-color:#743A22"/>
			<stop  offset="0.3202" style="stop-color:#87492D"/>
			<stop  offset="0.4328" style="stop-color:#A5613E"/>
			<stop  offset="0.5459" style="stop-color:#CE8356"/>
			<stop  offset="0.6034" style="stop-color:#EB9B66"/>
			<stop  offset="0.828" style="stop-color:#D78653"/>
			<stop  offset="0.9061" style="stop-color:#985634"/>
			<stop  offset="0.9687" style="stop-color:#733821"/>
			<stop  offset="1" style="stop-color:#662E19"/>
		</linearGradient>
		<path id="XMLID_75_" fill="url(#XMLID_2_)" d="M63,31.998c0,17.126-13.878,31.009-30.998,31.009C14.878,63.007,1,49.124,1,31.998
			C1,14.876,14.878,0.993,32.002,0.993C49.122,0.993,63,14.876,63,31.998z"/>
		<g id="XMLID_3_">
			<g id="XMLID_23_">
				<path id="XMLID_24_" fill="#FFFFFF" d="M3.567,31.998c0-15.706,12.73-28.435,28.435-28.435l0,0
					c15.706,0,28.44,12.73,28.44,28.435l0,0c0,15.708-12.734,28.442-28.44,28.442l0,0C16.297,60.44,3.567,47.705,3.567,31.998
					L3.567,31.998z M12.25,12.246c-5.06,5.053-8.188,12.038-8.188,19.752l0,0c0,7.718,3.128,14.703,8.188,19.756l0,0
					c5.051,5.055,12.034,8.186,19.752,8.186l0,0c7.714,0,14.701-3.13,19.756-8.186l0,0c5.051-5.053,8.183-12.038,8.183-19.756l0,0
					c0-7.714-3.132-14.699-8.183-19.752l0,0C46.702,7.188,39.716,4.06,32.002,4.06l0,0C24.284,4.061,17.301,7.189,12.25,12.246
					L12.25,12.246z"/>
			</g>
			<path id="XMLID_25_" fill="#FFFFFF" d="M26.211,11.877h11.464v13.582h13.609v11.44H37.675v13.58h-5.016
				c1.436,0,2.149-1.429,2.149-2.86c0-1.427-1.431-2.859-3.58-2.859c-1.436,0-2.871,1.431-2.871,2.859
				c0,1.431,0.722,2.86,2.154,2.86h-4.298v-13.58H13.316v-11.44h12.895V11.877z M31.228,24.032L31.228,24.032
				c0.713,0,0.713,0.713,0.713,0.713c0,0.713,0,1.431-0.713,1.431c-0.718,0-0.718-0.718-0.718-1.431
				C30.51,24.745,30.51,24.032,31.228,24.032L31.228,24.032z M34.808,39.043L34.808,39.043c1.431,0,2.149,0.714,2.149,2.143
				c0,0.715-0.718,2.143-2.149,2.143s-2.149-1.427-2.149-2.143C32.659,39.757,33.377,39.043,34.808,39.043L34.808,39.043z
				 M32.659,34.754L32.659,34.754c0.718,0,1.436,0.713,1.436,1.431c0,0.714-0.718,1.429-1.436,1.429
				c-0.718,0-1.431-0.715-1.431-1.429C31.228,35.467,31.941,34.754,32.659,34.754L32.659,34.754z M34.808,30.462L34.808,30.462
				c0.718,0,0.718,0.716,0.718,1.429c0,0,0,0.718-0.718,0.718c-0.713,0-0.713-0.718-0.713-0.718
				C34.095,31.178,34.095,30.462,34.808,30.462L34.808,30.462z"/>
		</g>
	</g>
</g>
</svg>
