<?xml version="1.0" encoding="utf-8"?>
<!-- Generator: Adobe Illustrator 19.0.0, SVG Export Plug-In . SVG Version: 6.00 Build 0)  -->
<svg version="1.1" id="Layer_1" xmlns="http://www.w3.org/2000/svg" xmlns:xlink="http://www.w3.org/1999/xlink" x="0px" y="0px"
	 viewBox="0 0 64 64" enable-background="new 0 0 64 64" xml:space="preserve">
<g id="icon-laboratory">
	<g id="XMLID_81_">
		
			<linearGradient id="XMLID_2_" gradientUnits="userSpaceOnUse" x1="1" y1="31.9995" x2="63" y2="31.9995" gradientTransform="matrix(1 0 0 -1 0 64)">
			<stop  offset="0" style="stop-color:#662E19"/>
			<stop  offset="0.1016" style="stop-color:#69311B"/>
			<stop  offset="0.2094" style="stop-color:#743A22"/>
			<stop  offset="0.3202" style="stop-color:#87492D"/>
			<stop  offset="0.4328" style="stop-color:#A5613E"/>
			<stop  offset="0.5459" style="stop-color:#CE8356"/>
			<stop  offset="0.6034" style="stop-color:#EB9B66"/>
			<stop  offset="0.828" style="stop-color:#D78653"/>
			<stop  offset="0.9061" style="stop-color:#985634"/>
			<stop  offset="0.9687" style="stop-color:#733821"/>
			<stop  offset="1" style="stop-color:#662E19"/>
		</linearGradient>
		<path id="XMLID_74_" fill="url(#XMLID_2_)" d="M63,32c0,17.118-13.878,31.007-31,31.007C14.873,63.006,1,49.118,1,32
			C1,14.88,14.873,0.994,32,0.994C49.122,0.994,63,14.88,63,32z"/>
		<g id="XMLID_16_">
			<g id="XMLID_37_">
				<path id="XMLID_38_" fill="#FFFFFF" d="M3.561,32C3.561,16.29,16.296,3.561,32,3.561l0,0C47.704,3.561,60.439,16.29,60.439,32
					l0,0c0,15.708-12.736,28.437-28.439,28.437l0,0C16.296,60.437,3.561,47.708,3.561,32L3.561,32z M12.245,12.247
					C7.187,17.305,4.062,24.282,4.062,32l0,0c0,7.722,3.125,14.695,8.183,19.759l0,0C17.294,56.81,24.284,59.938,32,59.938l0,0
					c7.716,0,14.702-3.127,19.751-8.179l0,0c5.058-5.064,8.183-12.037,8.183-19.759l0,0c0-7.718-3.125-14.695-8.183-19.753l0,0
					C46.702,7.191,39.716,4.059,32,4.059l0,0C24.284,4.059,17.294,7.191,12.245,12.247L12.245,12.247z"/>
			</g>
			<g id="XMLID_17_">
				<path id="XMLID_36_" fill="#FFFFFF" d="M31.134,56.951L31.134,56.951c5.962,0,7.669-5.956,11.924-7.654
					c5.971-3.401,11.079-1.703,11.079-10.202v-0.847l-1.703-7.642c0-8.504,3.406-9.355-5.109-11.905
					c-3.414-1.699-6.82-8.502-10.23-8.502c-2.556,0-5.109,2.548-7.665,3.404c-4.251,0.849-5.109-1.705-9.368,0.849
					c-4.264,2.55-8.523,7.65-8.523,13.606l0,0c0,2.548,0,3.393,0,5.098c0,2.55-0.849,4.242-0.849,6.792
					c0,3.397,3.406,6.799,5.962,7.646C19.209,49.296,23.469,56.951,31.134,56.951L31.134,56.951z M31.987,16.152
					c9.372,0,17.042,7.648,17.042,17.003c0,9.34-7.669,16.995-17.042,16.995c-9.372,0-17.037-7.654-17.037-16.995
					C14.95,23.8,22.615,16.152,31.987,16.152L31.987,16.152z M43.912,46.746L43.912,46.746c6.816-3.402,8.523-9.349,5.966-15.296
					C50.727,38.247,49.029,42.495,43.912,46.746L43.912,46.746z M17.502,22.95L17.502,22.95c5.113-8.5,13.631-10.204,21.301-6.799
					C29.431,14.451,24.322,16.152,17.502,22.95L17.502,22.95z"/>
				<path id="XMLID_18_" fill="#FFFFFF" d="M31.987,17.852c8.519,0,15.339,6.799,15.339,15.303c0,8.487-6.82,15.292-15.339,15.292
					c-8.518,0-15.334-6.805-15.334-15.292C16.653,24.651,23.469,17.852,31.987,17.852L31.987,17.852z M31.987,19.549
					c4.255,4.251,8.519,10.2,8.519,17.848c0,4.244-1.703,7.648-5.109,8.497c-4.264,1.699-8.523,0-10.217-4.253
					c-0.858-1.694-1.711-3.395-0.858-6.784C25.18,28.902,28.581,24.651,31.987,19.549L31.987,19.549z"/>
				<path id="XMLID_39_" fill="#FFFFFF" d="M26.025,35.705c-0.845,4.242,1.699,7.64,5.109,8.491"/>
			</g>
		</g>
	</g>
</g>
</svg>
