<?xml version="1.0" encoding="utf-8"?>
<!-- Generator: Adobe Illustrator 19.0.0, SVG Export Plug-In . SVG Version: 6.00 Build 0)  -->
<svg version="1.1" id="Layer_1" xmlns="http://www.w3.org/2000/svg" xmlns:xlink="http://www.w3.org/1999/xlink" x="0px" y="0px"
	 viewBox="0 0 64 64" enable-background="new 0 0 64 64" xml:space="preserve">
<g id="icon-21technology">
	<g id="XMLID_7_">
		
			<linearGradient id="XMLID_2_" gradientUnits="userSpaceOnUse" x1="1" y1="32" x2="63" y2="32" gradientTransform="matrix(1 0 0 -1 0 64)">
			<stop  offset="0" style="stop-color:#662E19"/>
			<stop  offset="0.1016" style="stop-color:#69311B"/>
			<stop  offset="0.2094" style="stop-color:#743A22"/>
			<stop  offset="0.3202" style="stop-color:#87492D"/>
			<stop  offset="0.4328" style="stop-color:#A5613E"/>
			<stop  offset="0.5459" style="stop-color:#CE8356"/>
			<stop  offset="0.6034" style="stop-color:#EB9B66"/>
			<stop  offset="0.828" style="stop-color:#D78653"/>
			<stop  offset="0.9061" style="stop-color:#985634"/>
			<stop  offset="0.9687" style="stop-color:#733821"/>
			<stop  offset="1" style="stop-color:#662E19"/>
		</linearGradient>
		<path id="XMLID_72_" fill="url(#XMLID_2_)" d="M63,32c0,17.125-13.882,31.002-31,31.002S1,49.125,1,32
			C1,14.882,14.882,0.998,32,0.998S63,14.882,63,32z"/>
		<g id="XMLID_128_">
			<g id="XMLID_129_">
				<path id="XMLID_9_" fill="#FFFFFF" d="M3.567,32C3.567,16.3,16.296,3.562,32,3.562l0,0C47.704,3.562,60.438,16.3,60.438,32l0,0
					c0,15.705-12.733,28.444-28.438,28.444l0,0C16.296,60.444,3.567,47.704,3.567,32L3.567,32z M12.25,12.245
					C7.19,17.305,4.063,24.287,4.063,32l0,0c0,7.715,3.128,14.702,8.187,19.759l0,0C17.3,56.81,24.287,59.937,32,59.937l0,0
					c7.718,0,14.7-3.128,19.755-8.179l0,0C56.81,46.702,59.937,39.715,59.937,32l0,0c0-7.713-3.128-14.695-8.183-19.754l0,0
					C46.699,7.188,39.717,4.065,32,4.065l0,0C24.287,4.065,17.3,7.188,12.25,12.245L12.25,12.245z"/>
			</g>
		</g>
		<path id="XMLID_127_" fill="#FFFFFF" d="M31.319,26.157c0.087-0.026,0.17-0.055,0.256-0.084c4.159-1.299,8.096-2.261,11.422-2.846
			c-3.694-5.85-9.415-10.194-13.251-12.53c-0.15,8.822-7.468,12.131-10.269,19.975c3.163-1.5,7.161-3.053,11.585-4.438
			C31.15,26.208,31.233,26.183,31.319,26.157z"/>
		<path id="XMLID_126_" fill="#FFFFFF" d="M45.79,29.258c-0.011-0.029-0.113-0.177-0.122-0.206
			c-0.062,0.029-0.036,0.177-0.098,0.206l0,0H45.79z"/>
		<polygon id="XMLID_125_" fill="#FFFFFF" points="34.48,33.454 34.48,33.454 34.48,33.454 		"/>
		<polygon id="XMLID_124_" fill="#FFFFFF" points="19.18,31.583 19.181,31.583 19.181,31.583 		"/>
		<path id="XMLID_123_" fill="#FFFFFF" d="M42.997,23.228c0.116,0.183,0.223,0.371,0.334,0.556c3.406-0.324,5.635-0.038,5.942,0.945
			c0.285,0.913-1.135,2.276-3.729,3.809c0.071,0.21,0.15,0.416,0.216,0.631c4.591-2.203,7.355-4.277,6.967-5.519
			C52.315,22.337,48.487,22.264,42.997,23.228z"/>
		<path id="XMLID_122_" fill="#FFFFFF" d="M36.939,32.543v0.183c3.25-1.121,6.189-2.31,8.631-3.468l0.387-0.206l-1.7,0.206
			C42.266,30.324,39.772,31.447,36.939,32.543z"/>
		<g id="XMLID_6_">
			<g id="XMLID_89_">
				<path id="XMLID_90_" fill="none" d="M19.18,31.584c-2.403,1.459-3.702,2.749-3.429,3.626c0.194,0.62,1.148,0.962,2.671,1.05
					C18.493,34.526,18.763,32.982,19.18,31.584C19.18,31.584,19.18,31.583,19.18,31.584L19.18,31.584
					C19.18,31.583,19.18,31.583,19.18,31.584L19.18,31.584z"/>
				<path id="XMLID_91_" fill="none" d="M18.432,36.26c-0.003,0-0.007,0-0.01,0c0,0.006,0,0.012-0.001,0.018L18.432,36.26z"/>
				<path id="XMLID_92_" fill="none" d="M28.587,29.876c-0.004,0.001-0.006,0.008-0.006,0.029
					C28.58,29.895,28.584,29.885,28.587,29.876z"/>
				<path id="XMLID_93_" fill="none" d="M39.738,40.142l-0.096,0.012c-2.015,0.191-3.803,0.287-5.364,0.287
					c-0.311,0-0.569-0.008-0.776-0.024c0.669-0.677,1.159-1.199,1.469-1.565c2.804-2.787,4.205-4.954,4.205-6.499
					c0-1.417-0.538-2.513-1.613-3.285c-0.948-0.685-2.154-1.027-3.62-1.027c-0.852,0-1.76,0.147-2.724,0.442
					c-1.004,0.311-1.824,0.709-2.461,1.195c-0.102,0.075-0.158,0.141-0.173,0.198c0.021-0.005,0.103,0.298,0.244,0.913
					c0.04,0.358,0.064,0.633,0.072,0.824c0.016,0.239,0.064,0.378,0.143,0.418c0.024,0.008,0.068,0.012,0.131,0.012l0.621-0.418
					c0.486-0.318,0.972-0.574,1.457-0.765c0.709-0.279,1.418-0.418,2.127-0.418c0.733,0,1.374,0.219,1.923,0.657
					c0.589,0.47,0.884,1.067,0.884,1.792c0,0.884-0.689,2.182-2.067,3.895c-1.067,1.314-2.154,2.453-3.261,3.416
					c-0.159,0.136-0.549,0.259-1.171,0.371c-0.558,0.095-0.836,0.191-0.836,0.287l0.311,1.72c0.048,0.159,0.163,0.239,0.347,0.239
					c0.573,0,1.431-0.012,2.574-0.036c1.143-0.024,1.997-0.036,2.562-0.036c1.657,0,2.905,0.032,3.745,0.095
					c0.84,0.064,1.216,0.095,1.129,0.095c0.263,0,0.394-0.088,0.394-0.263c0-0.239,0.012-0.599,0.036-1.081
					c0.024-0.482,0.036-0.838,0.036-1.069C39.989,40.27,39.905,40.142,39.738,40.142z"/>
				<path id="XMLID_94_" fill="#FFFFFF" d="M18.422,36.277c0-0.006,0-0.012,0.001-0.018l0,0l0,0c-1.523-0.088-2.477-0.43-2.671-1.05
					c-0.273-0.877,1.026-2.167,3.429-3.626l0,0l0,0c0.091-0.31,0.191-0.614,0.297-0.911c-4.719,2.237-7.574,4.357-7.179,5.618
					c0.312,0.998,2.607,1.279,6.103,0.932c0-0.001,0-0.003,0-0.004l-0.432-0.196L18.422,36.277z"/>
				<polygon id="XMLID_95_" fill="#FFFFFF" points="18.422,36.259 18.422,36.259 18.422,36.259 				"/>
				<path id="XMLID_96_" fill="#FFFFFF" d="M45.162,42.699c-0.263,0-0.641,0.008-1.135,0.024s-0.864,0.024-1.111,0.024
					s-0.37-0.1-0.37-0.299c0-0.167,0.052-1.633,0.155-4.396c0.048-1.338,0.071-3.289,0.071-5.854c0-0.183-0.04-0.275-0.119-0.275
					c-0.191,0-0.492,0.064-0.902,0.191c-0.41,0.128-0.715,0.191-0.914,0.191c-0.183,0-0.275-0.048-0.275-0.143
					c0-0.096,0.01-0.239,0.03-0.43s0.03-0.335,0.03-0.43c0-0.088-0.008-0.219-0.024-0.394s-0.024-0.306-0.024-0.394
					c0-0.103,0.088-0.191,0.263-0.263c0.462-0.191,0.952-0.518,1.47-0.98c0.024-0.024,0.243-0.263,0.657-0.717
					c0.358-0.39,0.558-0.585,0.597-0.585c-0.008,0,0.323,0.072,0.992,0.215c0.217,0.028,0.527,0.079,0.919,0.151
					c-0.554-1.6-1.281-3.12-2.141-4.55c-3.174,0.301-7.368,1.13-11.994,2.422c-5.062,1.756-9.357,3.679-12.155,5.377l0,0l0,0
					c-0.417,1.399-0.687,2.943-0.758,4.676l0,0l0,0c0.003,0,0.007,0,0.01,0l-0.011,0.018c-0.012,0.29-0.023,0.579-0.023,0.88
					c0,0.02,0.002,0.041,0.002,0.061l0.007,0.003c-0.003,0-0.005,0.001-0.008,0.001c0.034,7.713,5.73,14.134,12.466,14.549
					c7.263,0.159,12.543-3.593,14.661-9.326C45.476,42.613,45.355,42.699,45.162,42.699z M18.598,37.147
					C18.598,37.152,18.594,37.148,18.598,37.147c0.001-0.021-0.002-0.044-0.002-0.065c0-0.307,0.012-0.602,0.024-0.898
					c2.581,0.151,6.802-0.424,11.785-1.622l0,0l0,0c1.126-0.27,2.289-0.572,3.481-0.905c0.265-0.092,0.529-0.185,0.79-0.278l0,0l0,0
					v0.086c-0.174,0.053-0.345,0.11-0.518,0.164c-0.087,0.027-0.171,0.051-0.257,0.078c-0.087,0.028-0.17,0.055-0.257,0.082
					c-1.098,0.343-2.179,0.661-3.24,0.957h-0.001C25.868,36.013,21.746,36.834,18.598,37.147z M39.953,41.594
					c-0.024,0.482-0.036,0.842-0.036,1.081c0,0.175-0.131,0.263-0.394,0.263c0.088,0-0.289-0.032-1.129-0.095
					c-0.84-0.064-2.089-0.095-3.745-0.095c-0.565,0-1.42,0.012-2.562,0.036c-1.143,0.024-2.001,0.036-2.574,0.036
					c-0.183,0-0.299-0.08-0.347-0.239l-0.311-1.72c0-0.096,0.279-0.191,0.836-0.287c0.621-0.112,1.011-0.235,1.171-0.371
					c1.107-0.963,2.194-2.103,3.261-3.416c1.378-1.712,2.067-3.011,2.067-3.895c0-0.725-0.295-1.322-0.884-1.792
					c-0.55-0.438-1.191-0.657-1.923-0.657c-0.709,0-1.418,0.139-2.127,0.418c-0.486,0.191-0.972,0.446-1.457,0.765l-0.621,0.418
					c-0.064,0-0.107-0.004-0.131-0.012c-0.08-0.04-0.127-0.179-0.143-0.418c-0.008-0.191-0.032-0.466-0.072-0.824
					c-0.142-0.615-0.223-0.917-0.244-0.913c-0.002,0.01-0.006,0.019-0.006,0.029c0-0.02,0.003-0.028,0.006-0.029
					c0.015-0.058,0.07-0.123,0.173-0.198c0.637-0.486,1.457-0.884,2.461-1.195c0.964-0.295,1.871-0.442,2.724-0.442
					c1.465,0,2.672,0.342,3.62,1.027c1.075,0.772,1.613,1.868,1.613,3.285c0,1.545-1.402,3.712-4.205,6.499
					c-0.31,0.366-0.8,0.888-1.469,1.565c0.207,0.016,0.466,0.024,0.776,0.024c1.561,0,3.349-0.095,5.364-0.287l0.096-0.012
					c0.167,0,0.251,0.127,0.251,0.382C39.989,40.756,39.977,41.112,39.953,41.594z"/>
				<path id="XMLID_100_" fill="#FFFFFF" d="M18.422,36.277l-0.452,0.744l0.432,0.196c0-0.02-0.002-0.041-0.002-0.061
					C18.399,36.856,18.41,36.567,18.422,36.277z"/>
			</g>
			<path id="XMLID_101_" fill="#FFFFFF" d="M45.759,29.006l0.488-0.244l-0.455-0.091c-0.002,0.036-0.005,0.081-0.009,0.134
				C45.775,28.869,45.767,28.938,45.759,29.006z"/>
			<path id="XMLID_102_" fill="#FFFFFF" d="M45.532,39.067c0.016,1.41,0.024,2.465,0.024,3.166c0,0.076-0.008,0.141-0.024,0.198
				c0.658-1.785,1.012-3.759,1.021-5.87c0.101-1.155,0.093-2.281-0.005-3.38c-0.005,0.003-0.009,0.006-0.014,0.008
				c0.001-0.029,0.002-0.062,0.002-0.089c0-2.148-0.59-3.506-0.796-3.916c-0.154,1.463-0.231,3.7-0.231,6.717
				C45.508,36.602,45.516,37.657,45.532,39.067z"/>
			<path id="XMLID_103_" fill="#010101" d="M28.58,29.904c0-0.009,0.004-0.019,0.006-0.029C28.583,29.876,28.58,29.884,28.58,29.904
				z"/>
			<path id="XMLID_104_" fill="#010101" d="M45.527,42.446c0.002-0.005,0.004-0.009,0.005-0.014
				C45.53,42.436,45.529,42.441,45.527,42.446z"/>
		</g>
	</g>
</g>
</svg>
