<?xml version="1.0" encoding="utf-8"?>
<!-- Generator: Adobe Illustrator 19.0.0, SVG Export Plug-In . SVG Version: 6.00 Build 0)  -->
<svg version="1.1" id="Layer_1" xmlns="http://www.w3.org/2000/svg" xmlns:xlink="http://www.w3.org/1999/xlink" x="0px" y="0px"
	 viewBox="0 0 64 64" enable-background="new 0 0 64 64" xml:space="preserve">
<g id="mother">
	<g id="XMLID_1_">
		
			<linearGradient id="XMLID_4_" gradientUnits="userSpaceOnUse" x1="1" y1="32" x2="63" y2="32" gradientTransform="matrix(1 0 0 -1 0 64)">
			<stop  offset="0" style="stop-color:#662E19"/>
			<stop  offset="0.1016" style="stop-color:#69311B"/>
			<stop  offset="0.2094" style="stop-color:#743A22"/>
			<stop  offset="0.3202" style="stop-color:#87492D"/>
			<stop  offset="0.4328" style="stop-color:#A5613E"/>
			<stop  offset="0.5459" style="stop-color:#CE8356"/>
			<stop  offset="0.6034" style="stop-color:#EB9B66"/>
			<stop  offset="0.828" style="stop-color:#D78653"/>
			<stop  offset="0.9061" style="stop-color:#985634"/>
			<stop  offset="0.9687" style="stop-color:#733821"/>
			<stop  offset="1" style="stop-color:#662E19"/>
		</linearGradient>
		<path id="XMLID_76_" fill="url(#XMLID_4_)" d="M63,31.997c0,17.124-13.883,31.009-30.998,31.009C14.878,63.005,1,49.119,1,31.997
			C1,14.874,14.878,0.994,32.002,0.994C49.117,0.994,63,14.874,63,31.997z"/>
		<g id="XMLID_2_">
			<g id="XMLID_20_">
				<path id="XMLID_21_" fill="#FFFFFF" d="M3.563,31.997c0-15.705,12.734-28.435,28.44-28.435l0,0
					c15.706,0,28.435,12.73,28.435,28.435l0,0c0,15.71-12.73,28.442-28.435,28.442l0,0C16.297,60.438,3.563,47.707,3.563,31.997
					L3.563,31.997z M12.246,12.244c-5.06,5.053-8.183,12.036-8.183,19.751l0,0c0,7.718,3.124,14.701,8.183,19.756l0,0
					c5.051,5.058,12.042,8.186,19.756,8.186l0,0c7.714,0,14.696-3.128,19.752-8.186l0,0c5.055-5.055,8.183-12.038,8.183-19.756l0,0
					c0-7.716-3.128-14.698-8.183-19.751l0,0C46.698,7.186,39.716,4.06,32.002,4.06l0,0C24.289,4.061,17.297,7.188,12.246,12.244
					L12.246,12.244z"/>
			</g>
			<path id="XMLID_22_" fill="#FFFFFF" d="M31.58,9.851c-3.863-1.675-0.761,4.122-8.566,12.495h0.113
				c-3.411,3.387-6.547,9.323-5.686,16.626c0.052,0.435,0.592,4.364,3.598,7.905c2.854,3.354,6.782,5.051,11.694,5.051
				c0.274,0,0.557-0.017,0.835-0.026c0,0.013-0.009,0.026-0.013,0.041c0.148-0.011,0.283-0.039,0.431-0.054
				c0.035-0.002,0.07,0,0.109-0.004v-0.009C55.743,49.575,54.06,19.622,31.58,9.851z M39.485,42.078
				c0,2.493-4.681,5.584-5.738,9.251c-14,0.659-15.736-12.292-15.753-12.423c-0.87-7.387,2.454-13.352,5.917-16.561h0.418
				c1.975,0,3.955,0.657,5.93,1.318c1.98,1.314,1.98,1.975,3.298,3.946h-1.318v1.316v0.657c0,1.314-1.318,1.975-1.318,2.632
				c0,0.652,0.661,1.969,0.661,1.969l-0.661,0.659L30.26,35.5c0,0.661,0,0.661-0.661,1.32c0,1.312-0.653,0-0.653,1.312
				c-0.661,0-0.661,0.659-1.318,0.659c-0.661,0-1.322-0.659-1.979-0.659c-1.318,0-1.318,1.316-1.318,2.63
				c0,2.634,1.318,5.262,3.955,5.262c0,0,0,0,0.661,0c0-0.657,0-0.657,0-1.314c0-0.657-0.661-0.657-0.661-1.314v-0.659
				c0-0.659,0-0.659,0-0.659c0-0.657,0-0.657,0-0.657c0-0.659,0-0.659,0-1.316c0-0.657,0.661,0,1.314-1.314
				c0-0.659,0-1.318,0.661-1.971c0.661-0.659,2.641-1.32,3.955-1.32h0.657c2.641,0,4.616,3.291,4.616,5.262v1.317H39.485z"/>
		</g>
	</g>
</g>
</svg>
