<?xml version="1.0" encoding="utf-8"?>
<!-- Generator: Adobe Illustrator 19.0.0, SVG Export Plug-In . SVG Version: 6.00 Build 0)  -->
<svg version="1.1" id="Layer_1" xmlns="http://www.w3.org/2000/svg" xmlns:xlink="http://www.w3.org/1999/xlink" x="0px" y="0px"
	 viewBox="0 0 64 64" enable-background="new 0 0 64 64" xml:space="preserve">
<g id="services">
	
		<linearGradient id="XMLID_2_" gradientUnits="userSpaceOnUse" x1="32" y1="62.998" x2="32" y2="1" gradientTransform="matrix(1 0 0 -1 0 64)">
		<stop  offset="0" style="stop-color:#662E19"/>
		<stop  offset="0.1016" style="stop-color:#69311B"/>
		<stop  offset="0.2094" style="stop-color:#743A22"/>
		<stop  offset="0.3202" style="stop-color:#87492D"/>
		<stop  offset="0.4328" style="stop-color:#A5613E"/>
		<stop  offset="0.5459" style="stop-color:#CE8356"/>
		<stop  offset="0.6034" style="stop-color:#EB9B66"/>
		<stop  offset="0.828" style="stop-color:#D78653"/>
		<stop  offset="0.9061" style="stop-color:#985634"/>
		<stop  offset="0.9687" style="stop-color:#733821"/>
		<stop  offset="1" style="stop-color:#662E19"/>
	</linearGradient>
	<path id="XMLID_19_" fill="url(#XMLID_2_)" d="M10.077,10.08C4.463,15.692,1,23.437,1,31.999l0,0
		c0,8.559,3.463,16.309,9.077,21.921l0,0C15.687,59.532,23.438,63,32.002,63l0,0c8.559,0,16.306-3.468,21.916-9.08l0,0
		C59.528,48.308,63,40.558,63,31.999l0,0c0-8.562-3.472-16.306-9.082-21.918l0,0c-5.61-5.616-13.357-9.079-21.916-9.079l0,0
		C23.438,1.001,15.687,4.464,10.077,10.08L10.077,10.08z"/>
	<g id="XMLID_5_">
		<g id="XMLID_49_">
			<path id="XMLID_77_" fill="#FFFFFF" d="M3.309,32c0-15.841,12.843-28.698,28.693-28.698l0,0
				c15.846,0,28.689,12.856,28.689,28.698l0,0c0,15.846-12.843,28.698-28.689,28.698l0,0C16.152,60.698,3.309,47.846,3.309,32
				L3.309,32z M12.07,12.066C6.965,17.173,3.814,24.215,3.814,32l0,0c0,7.782,3.152,14.832,8.256,19.934l0,0
				c5.096,5.098,12.145,8.252,19.932,8.252l0,0c7.782,0,14.827-3.154,19.928-8.252l0,0c5.1-5.103,8.256-12.152,8.256-19.934l0,0
				c0-7.784-3.156-14.827-8.256-19.934l0,0c-5.101-5.1-12.145-8.254-19.928-8.254l0,0C24.215,3.811,17.166,6.965,12.07,12.066
				L12.07,12.066z"/>
		</g>
		<path id="XMLID_80_" fill="#FFFFFF" d="M29.632,30.266c0.672,0.663,2.006,2.002,2.006,2.002c0,0.669-0.672,1.337-1.334,1.999
			l1.334,1.337c-1.334,2.004-1.334,4.007-1.334,6.676c-0.672-0.667-2.01-4.672-2.682-6.005c-0.667-2.671-0.667-4.007-0.667-7.346
			c-2.678,1.999-6.018,1.999-9.363,3.338L14.247,48.29c2.006,2.004,12.707,0.667,18.73,1.334H49.7
			c0.667-0.667,1.334-0.667,1.334-1.334c-0.667-3.334-2.006-15.354-3.34-16.023c-1.339-0.672-3.349-0.672-5.355-1.339
			c-0.667-0.663-1.339-0.663-2.678-1.332c-0.667,0-1.334-0.667-2.001-0.667c1.334,2.666-2.006,12.683-3.345,13.35
			c0-2.669,0-4.672-0.672-6.676c0,0,0.672-0.66,0.672-1.337c0,0-0.672-1.33-1.339-1.33v-0.669l4.012-3.338v-6.678h0.672
			c0.667-1.332,0.667-1.999,0.667-2.666l0,0c0-0.663,0-0.663-0.667-0.663v-4.007c0-1.999-3.345-4.679-4.684-4.679h-0.672
			c-2.673,0-5.351,2.68-5.351,6.011v2.675h-0.667v0.663c0,0.667,0,2.666,1.334,2.666l0.672,3.347c0,0.665-0.672,1.999-0.672,2.662
			L29.632,30.266z"/>
	</g>
</g>
</svg>
